<?xml version="1.0" encoding="UTF-8"?>
<svg id="Layer_1" viewBox="0 0 200 200" xmlns="http://www.w3.org/2000/svg">
	<defs>
		<style>.cls-1{fill:#71CB9F;}</style>
	</defs>
	<path class="cls-1" d="m115.56,67.39v11.91c0,1.31,1.15,2.56,2.5,2.5s2.5-1.1,2.5-2.5v-11.91c0-1.31-1.15-2.56-2.5-2.5s-2.5,1.1-2.5,2.5h0Z"/>
	<path class="cls-1" d="m84.41,67.39v10.99c0,1.31,1.15,2.56,2.5,2.5s2.5-1.1,2.5-2.5v-10.99c0-1.31-1.15-2.56-2.5-2.5s-2.5,1.1-2.5,2.5h0Z"/>
	<path class="cls-1" d="m76.84,122.33c4.19-8.53,12.52-14.4,21.86-15.94,9.25-1.52,18.56,2.33,24.84,9.11,3.53,3.81,5.96,8.47,7.02,13.55.28,1.32,1.83,2.09,3.08,1.75,1.37-.38,2.02-1.75,1.75-3.08-2.19-10.46-9.87-19.59-19.63-23.85s-21.83-3.31-31.15,2.65c-5.11,3.27-9.4,7.83-12.08,13.29-.6,1.21-.33,2.7.9,3.42,1.1.64,2.82.32,3.42-.9h0Z"/>
	<path class="cls-1" d="m82.93,26.46c-15.95.22-31.6,6.49-43.35,17.27-11.93,10.94-19.16,26.47-20.51,42.54-1.25,14.8,3.07,29.56,11.07,41.98s19.16,22.46,31.59,30.2c6.45,4.02,13.29,7.37,20.37,10.13,8.52,3.32,17.48,5.7,26.64,6.17,15.04.77,29.24-4.6,40.68-14.22,10.99-9.24,18.98-21.73,24.33-34.96,2.83-7,4.85-14.31,6.1-21.76,1.47-8.72,1.88-17.66.11-26.37-2.66-13.12-10.46-24.64-20.78-33.01s-23.85-14.48-37.37-17.49c-3.41-.76-6.85-1.32-10.31-1.76-1.34-.17-2.5,1.27-2.5,2.5,0,1.49,1.15,2.33,2.5,2.5,12.88,1.63,25.64,5.77,36.72,12.58,10.4,6.39,19.52,15.51,24.18,26.95,5.8,14.25,4.1,30.25-.09,44.71-3.73,12.87-10.03,25.25-18.97,35.29s-19.81,17.07-32.73,19.39c-16.06,2.87-32.86-2.58-47.08-9.75-12.39-6.24-23.79-14.63-32.82-25.21s-14.92-22.48-16.46-35.74c-1.75-15.08,2.41-30.53,11.35-42.79s22.23-20.13,36.69-23.03c3.51-.7,7.06-1.05,10.64-1.1,3.21-.04,3.22-5.04,0-5h0Z"/>
</svg>